HIERARCHY
ROOT Hips
{
	OFFSET 0.000000 0.000000 0.000000
	CHANNELS 6 Xposition Yposition Zposition Xrotation Yrotation Zrotation
	JOINT Thigh.L
	{
		OFFSET 0.055633 0.026699 -0.095051
		CHANNELS 3 Xrotation Yrotation Zrotation
		JOINT Shin.L
		{
			OFFSET 0.060936 0.005673 -0.411804
			CHANNELS 3 Xrotation Yrotation Zrotation
			JOINT Foot.L
			{
				OFFSET -0.042479 0.031832 -0.437478
				CHANNELS 3 Xrotation Yrotation Zrotation
				JOINT Toe.L
				{
					OFFSET 0.048682 -0.127010 -0.064292
					CHANNELS 3 Xrotation Yrotation Zrotation
					End Site
					{
						OFFSET 0.000000 0.050000 0.000000
					}
				}
			}
		}
	}
	JOINT Thigh.R
	{
		OFFSET -0.060736 0.020788 -0.107802
		CHANNELS 3 Xrotation Yrotation Zrotation
		JOINT Shin.R
		{
			OFFSET -0.049864 0.013926 -0.393040
			CHANNELS 3 Xrotation Yrotation Zrotation
			JOINT Foot.R
			{
				OFFSET 0.014096 0.019912 -0.446503
				CHANNELS 3 Xrotation Yrotation Zrotation
				JOINT Toe.R
				{
					OFFSET -0.039965 -0.127849 -0.064162
					CHANNELS 3 Xrotation Yrotation Zrotation
					End Site
					{
						OFFSET 0.000000 0.050000 0.000000
					}
				}
			}
		}
	}
	JOINT Spine
	{
		OFFSET -0.002752 0.028400 0.114289
		CHANNELS 3 Xrotation Yrotation Zrotation
		JOINT Spine.2
		{
			OFFSET 0.009296 0.007235 0.141291
			CHANNELS 3 Xrotation Yrotation Zrotation
			JOINT Chest
			{
				OFFSET -0.010898 -0.023398 0.056879
				CHANNELS 3 Xrotation Yrotation Zrotation
				JOINT Neck
				{
					OFFSET -0.012354 0.025595 0.171253
					CHANNELS 3 Xrotation Yrotation Zrotation
					JOINT Head
					{
						OFFSET 0.025597 -0.022281 0.172545
						CHANNELS 3 Xrotation Yrotation Zrotation
						End Site
						{
							OFFSET 0.000000 0.050000 0.000000
						}
					}
				}
				JOINT Clavicle.L
				{
					OFFSET 0.047584 0.004445 0.088123
					CHANNELS 3 Xrotation Yrotation Zrotation
					JOINT UpperArm.L
					{
						OFFSET 0.128121 0.014248 0.057770
						CHANNELS 3 Xrotation Yrotation Zrotation
						JOINT ForeArm.L
						{
							OFFSET 0.269599 0.043929 -0.075711
							CHANNELS 3 Xrotation Yrotation Zrotation
							JOINT Hand.L
							{
								OFFSET 0.273792 0.000498 0.022481
								CHANNELS 3 Xrotation Yrotation Zrotation
								JOINT Thumb1.L
								{
									OFFSET 0.154597 0.000218 0.009820
									CHANNELS 3 Xrotation Yrotation Zrotation
									JOINT Thumb2.L
									{
										OFFSET 0.029899 0.000054 0.002455
										CHANNELS 3 Xrotation Yrotation Zrotation
										End Site
										{
											OFFSET 0.024916 0.000045 0.002046
										}
									}
								}
								JOINT Index1.L
								{
									OFFSET 0.137597 0.000218 0.009820
									CHANNELS 3 Xrotation Yrotation Zrotation
									JOINT Index2.L
									{
										OFFSET 0.029899 0.000054 0.002455
										CHANNELS 3 Xrotation Yrotation Zrotation
										JOINT Index3.L
										{
											OFFSET 0.021926 0.000040 0.001800
											CHANNELS 3 Xrotation Yrotation Zrotation
											End Site
											{
												OFFSET 0.017940 0.000033 0.001473
											}
										}
									}
								}
								JOINT Middle1.L
								{
									OFFSET 0.119597 0.000218 0.009820
									CHANNELS 3 Xrotation Yrotation Zrotation
									JOINT Middle2.L
									{
										OFFSET 0.030896 0.000056 0.002537
										CHANNELS 3 Xrotation Yrotation Zrotation
										JOINT Middle3.L
										{
											OFFSET 0.021926 0.000040 0.001800
											CHANNELS 3 Xrotation Yrotation Zrotation
											End Site
											{
												OFFSET 0.017940 0.000033 0.001473
											}
										}
									}
								}
								JOINT Ring1.L
								{
									OFFSET 0.101597 0.000218 0.009820
									CHANNELS 3 Xrotation Yrotation Zrotation
									JOINT Ring2.L
									{
										OFFSET 0.028903 0.000053 0.002373
										CHANNELS 3 Xrotation Yrotation Zrotation
										JOINT Ring3.L
										{
											OFFSET 0.019933 0.000036 0.001637
											CHANNELS 3 Xrotation Yrotation Zrotation
											End Site
											{
												OFFSET 0.016943 0.000031 0.001391
											}
										}
									}
								}
								JOINT Pinky1.L
								{
									OFFSET 0.085597 0.000218 0.009820
									CHANNELS 3 Xrotation Yrotation Zrotation
									JOINT Pinky2.L
									{
										OFFSET 0.023919 0.000044 0.001964
										CHANNELS 3 Xrotation Yrotation Zrotation
										JOINT Pinky3.L
										{
											OFFSET 0.016943 0.000031 0.001391
											CHANNELS 3 Xrotation Yrotation Zrotation
											End Site
											{
												OFFSET 0.013953 0.000025 0.001146
											}
										}
									}
								}
							}
						}
					}
				}
				JOINT Clavicle.R
				{
					OFFSET -0.048740 0.010676 0.087154
					CHANNELS 3 Xrotation Yrotation Zrotation
					JOINT UpperArm.R
					{
						OFFSET -0.111196 0.010614 0.054078
						CHANNELS 3 Xrotation Yrotation Zrotation
						JOINT ForeArm.R
						{
							OFFSET -0.287967 0.028456 -0.039668
							CHANNELS 3 Xrotation Yrotation Zrotation
							JOINT Hand.R
							{
								OFFSET -0.270087 0.014108 -0.005640
								CHANNELS 3 Xrotation Yrotation Zrotation
								JOINT Thumb1.R
								{
									OFFSET -0.154811 0.006258 -0.002502
									CHANNELS 3 Xrotation Yrotation Zrotation
									JOINT Thumb2.R
									{
										OFFSET -0.029953 0.001565 -0.000625
										CHANNELS 3 Xrotation Yrotation Zrotation
										End Site
										{
											OFFSET -0.024961 0.001304 -0.000521
										}
									}
								}
								JOINT Index1.R
								{
									OFFSET -0.137811 0.006258 -0.002502
									CHANNELS 3 Xrotation Yrotation Zrotation
									JOINT Index2.R
									{
										OFFSET -0.029953 0.001565 -0.000625
										CHANNELS 3 Xrotation Yrotation Zrotation
										JOINT Index3.R
										{
											OFFSET -0.021965 0.001147 -0.000459
											CHANNELS 3 Xrotation Yrotation Zrotation
											End Site
											{
												OFFSET -0.017972 0.000939 -0.000375
											}
										}
									}
								}
								JOINT Middle1.R
								{
									OFFSET -0.119811 0.006258 -0.002502
									CHANNELS 3 Xrotation Yrotation Zrotation
									JOINT Middle2.R
									{
										OFFSET -0.030951 0.001617 -0.000646
										CHANNELS 3 Xrotation Yrotation Zrotation
										JOINT Middle3.R
										{
											OFFSET -0.021965 0.001147 -0.000459
											CHANNELS 3 Xrotation Yrotation Zrotation
											End Site
											{
												OFFSET -0.017972 0.000939 -0.000375
											}
										}
									}
								}
								JOINT Ring1.R
								{
									OFFSET -0.101811 0.006258 -0.002502
									CHANNELS 3 Xrotation Yrotation Zrotation
									JOINT Ring2.R
									{
										OFFSET -0.028954 0.001512 -0.000605
										CHANNELS 3 Xrotation Yrotation Zrotation
										JOINT Ring3.R
										{
											OFFSET -0.019968 0.001043 -0.000417
											CHANNELS 3 Xrotation Yrotation Zrotation
											End Site
											{
												OFFSET -0.016973 0.000887 -0.000354
											}
										}
									}
								}
								JOINT Pinky1.R
								{
									OFFSET -0.085811 0.006258 -0.002502
									CHANNELS 3 Xrotation Yrotation Zrotation
									JOINT Pinky2.R
									{
										OFFSET -0.023962 0.001252 -0.000500
										CHANNELS 3 Xrotation Yrotation Zrotation
										JOINT Pinky3.R
										{
											OFFSET -0.016973 0.000887 -0.000354
											CHANNELS 3 Xrotation Yrotation Zrotation
											End Site
											{
												OFFSET -0.013978 0.000730 -0.000292
											}
										}
									}
								}
							}
						}
					}
				}
			}
		}
	}
}
MOTION
Frames: 6
Frame Time: 0.03333333
0.143624 -0.286299 1.099628 -34.601844 -3.906591 -20.409858 -57.625443 -13.524929 -15.064924 16.312394 2.227185 1.111212 5.266818 6.002613 6.940627 -1.244546 -1.493399 -0.794706 15.402239 11.155762 -11.414449 23.525524 0.934104 3.787351 -16.315851 -0.555119 -5.768009 -2.806434 -1.037924 -0.178820 39.710867 5.065974 9.459081 -4.865860 4.469308 -7.480785 7.983602 -1.934446 -1.374812 8.262906 13.248752 7.906903 4.070870 -2.360352 13.753800 3.012885 15.178338 -10.102595 10.273083 47.855744 -12.976581 11.255377 -0.669653 -29.263718 -23.912694 -1.969948 -7.002430 0.000000 0.000000 0.000000 0.000000 0.000000 0.000000 0.000000 0.000000 0.000000 0.000000 0.000000 0.000000 0.000000 0.000000 0.000000 0.000000 0.000000 0.000000 0.000000 0.000000 0.000000 0.000000 0.000000 0.000000 0.000000 0.000000 0.000000 0.000000 0.000000 0.000000 0.000000 0.000000 0.000000 0.000000 0.000000 0.000000 0.000000 0.000000 0.000000 0.000000 0.000000 0.000000 1.031133 -8.862109 13.281945 17.766990 -49.046034 21.126296 7.098619 1.787924 35.834166 -14.372932 0.444786 1.498926 0.000000 0.000000 0.000000 0.000000 0.000000 0.000000 0.000000 0.000000 0.000000 0.000000 0.000000 0.000000 0.000000 0.000000 0.000000 0.000000 0.000000 0.000000 0.000000 0.000000 0.000000 0.000000 0.000000 0.000000 0.000000 0.000000 0.000000 0.000000 0.000000 0.000000 0.000000 0.000000 0.000000 0.000000 0.000000 0.000000 0.000000 0.000000 0.000000 0.000000 0.000000 0.000000
0.142760 -0.286966 1.100137 -34.739455 -3.821734 -20.522731 -57.136333 -13.669769 -15.056528 15.618200 1.977036 1.111089 5.531838 6.153015 7.010944 -1.240850 -1.505987 -0.788870 15.367445 11.190374 -11.359740 23.827144 0.995795 3.843117 -16.219587 -0.566822 -5.777253 -2.810025 -1.032570 -0.184618 39.570612 5.031142 9.409169 -4.784022 4.537249 -7.443849 7.946064 -1.924659 -1.379068 8.421723 13.256865 7.914001 4.060375 -2.323295 13.738965 3.018833 15.239485 -10.029596 10.301131 47.882767 -12.929050 11.179939 -0.648470 -29.293141 -23.710623 -2.032316 -7.108085 0.000000 0.000000 0.000000 0.000000 0.000000 0.000000 0.000000 0.000000 0.000000 0.000000 0.000000 0.000000 0.000000 0.000000 0.000000 0.000000 0.000000 0.000000 0.000000 0.000000 0.000000 0.000000 0.000000 0.000000 0.000000 0.000000 0.000000 0.000000 0.000000 0.000000 0.000000 0.000000 0.000000 0.000000 0.000000 0.000000 0.000000 0.000000 0.000000 0.000000 0.000000 0.000000 1.081582 -8.872372 13.308427 17.771485 -49.065907 21.098044 7.064980 1.708429 35.740101 -14.296217 0.488506 1.659969 0.000000 0.000000 0.000000 0.000000 0.000000 0.000000 0.000000 0.000000 0.000000 0.000000 0.000000 0.000000 0.000000 0.000000 0.000000 0.000000 0.000000 0.000000 0.000000 0.000000 0.000000 0.000000 0.000000 0.000000 0.000000 0.000000 0.000000 0.000000 0.000000 0.000000 0.000000 0.000000 0.000000 0.000000 0.000000 0.000000 0.000000 0.000000 0.000000 0.000000 0.000000 0.000000
0.140933 -0.288166 1.100716 -34.898909 -3.666888 -20.566517 -56.880406 -13.791255 -15.066371 15.368881 1.849196 1.091847 5.751697 6.228396 6.995875 -1.228476 -1.498755 -0.775963 15.384512 11.165812 -11.324329 24.079605 1.031981 3.861072 -16.054457 -0.575533 -5.787267 -2.825842 -1.028124 -0.194618 39.532123 5.018791 9.356616 -4.685275 4.540026 -7.421009 7.899257 -1.911347 -1.399960 8.501191 13.217648 7.956180 4.050598 -2.287321 13.684107 3.004797 15.279245 -9.986667 10.322044 47.876262 -12.910826 11.163455 -0.650860 -29.387691 -23.531678 -1.956240 -7.170067 0.000000 0.000000 0.000000 0.000000 0.000000 0.000000 0.000000 0.000000 0.000000 0.000000 0.000000 0.000000 0.000000 0.000000 0.000000 0.000000 0.000000 0.000000 0.000000 0.000000 0.000000 0.000000 0.000000 0.000000 0.000000 0.000000 0.000000 0.000000 0.000000 0.000000 0.000000 0.000000 0.000000 0.000000 0.000000 0.000000 0.000000 0.000000 0.000000 0.000000 0.000000 0.000000 1.070338 -8.904128 13.318707 17.723396 -49.050797 21.049454 6.999119 1.644839 35.582519 -14.327458 0.409901 1.724151 0.000000 0.000000 0.000000 0.000000 0.000000 0.000000 0.000000 0.000000 0.000000 0.000000 0.000000 0.000000 0.000000 0.000000 0.000000 0.000000 0.000000 0.000000 0.000000 0.000000 0.000000 0.000000 0.000000 0.000000 0.000000 0.000000 0.000000 0.000000 0.000000 0.000000 0.000000 0.000000 0.000000 0.000000 0.000000 0.000000 0.000000 0.000000 0.000000 0.000000 0.000000 0.000000
0.139480 -0.288637 1.101028 -34.983393 -3.576327 -20.572088 -56.663373 -13.874633 -15.067909 15.176681 1.767536 1.094376 5.954574 6.303808 6.981767 -1.228148 -1.494961 -0.769790 15.367786 11.168585 -11.289614 24.271381 1.057180 3.860114 -15.935047 -0.575453 -5.789720 -2.835876 -1.036035 -0.200608 39.431928 5.003576 9.325390 -4.625307 4.561074 -7.393343 7.869292 -1.901105 -1.409772 8.526724 13.155025 7.955685 4.016412 -2.298745 13.622074 2.995599 15.320586 -9.947682 10.356215 47.860420 -12.902627 11.158919 -0.654633 -29.431529 -23.372205 -1.949281 -7.248480 0.000000 0.000000 0.000000 0.000000 0.000000 0.000000 0.000000 0.000000 0.000000 0.000000 0.000000 0.000000 0.000000 0.000000 0.000000 0.000000 0.000000 0.000000 0.000000 0.000000 0.000000 0.000000 0.000000 0.000000 0.000000 0.000000 0.000000 0.000000 0.000000 0.000000 0.000000 0.000000 0.000000 0.000000 0.000000 0.000000 0.000000 0.000000 0.000000 0.000000 0.000000 0.000000 1.086677 -8.933472 13.293583 17.700992 -49.038166 20.945103 6.968655 1.600788 35.467324 -14.346744 0.368013 1.802266 0.000000 0.000000 0.000000 0.000000 0.000000 0.000000 0.000000 0.000000 0.000000 0.000000 0.000000 0.000000 0.000000 0.000000 0.000000 0.000000 0.000000 0.000000 0.000000 0.000000 0.000000 0.000000 0.000000 0.000000 0.000000 0.000000 0.000000 0.000000 0.000000 0.000000 0.000000 0.000000 0.000000 0.000000 0.000000 0.000000 0.000000 0.000000 0.000000 0.000000 0.000000 0.000000
0.139664 -0.287515 1.100780 -34.910712 -3.636880 -20.595626 -56.540638 -14.011163 -15.100131 15.181705 1.790603 1.162652 6.187201 6.384284 6.921541 -1.204285 -1.494829 -0.760070 15.276273 11.238021 -11.227026 24.328832 1.052482 3.870943 -15.958060 -0.531122 -5.805388 -2.857488 -1.045201 -0.203582 39.295081 5.028594 9.279802 -4.572570 4.578068 -7.357518 7.855918 -1.892965 -1.428792 8.359208 13.149730 7.969622 3.930963 -2.301507 13.549971 3.033275 15.350806 -9.946480 10.374745 47.774568 -12.839235 11.213897 -0.722313 -29.545408 -23.218650 -1.832152 -7.391902 0.000000 0.000000 0.000000 0.000000 0.000000 0.000000 0.000000 0.000000 0.000000 0.000000 0.000000 0.000000 0.000000 0.000000 0.000000 0.000000 0.000000 0.000000 0.000000 0.000000 0.000000 0.000000 0.000000 0.000000 0.000000 0.000000 0.000000 0.000000 0.000000 0.000000 0.000000 0.000000 0.000000 0.000000 0.000000 0.000000 0.000000 0.000000 0.000000 0.000000 0.000000 0.000000 1.177266 -9.005690 13.258856 17.676406 -48.999501 20.765638 6.957083 1.624146 35.558059 -14.358431 0.166271 1.860666 0.000000 0.000000 0.000000 0.000000 0.000000 0.000000 0.000000 0.000000 0.000000 0.000000 0.000000 0.000000 0.000000 0.000000 0.000000 0.000000 0.000000 0.000000 0.000000 0.000000 0.000000 0.000000 0.000000 0.000000 0.000000 0.000000 0.000000 0.000000 0.000000 0.000000 0.000000 0.000000 0.000000 0.000000 0.000000 0.000000 0.000000 0.000000 0.000000 0.000000 0.000000 0.000000
0.138292 -0.287191 1.100514 -34.839272 -3.592824 -20.521502 -56.434157 -14.090205 -15.046165 15.201152 1.793089 1.237064 6.209615 6.377211 6.873712 -1.184910 -1.487217 -0.745698 15.207935 11.189112 -11.171313 24.321063 1.060733 3.855175 -15.893405 -0.519059 -5.832125 -2.868756 -1.055433 -0.207785 39.194614 5.027820 9.232784 -4.563433 4.561381 -7.340528 7.858595 -1.894254 -1.450711 8.199911 13.088527 7.976439 3.813446 -2.331672 13.390780 3.005984 15.351092 -9.945802 10.394507 47.720130 -12.824234 11.288966 -0.785559 -29.666139 -23.127704 -1.727496 -7.437460 0.000000 0.000000 0.000000 0.000000 0.000000 0.000000 0.000000 0.000000 0.000000 0.000000 0.000000 0.000000 0.000000 0.000000 0.000000 0.000000 0.000000 0.000000 0.000000 0.000000 0.000000 0.000000 0.000000 0.000000 0.000000 0.000000 0.000000 0.000000 0.000000 0.000000 0.000000 0.000000 0.000000 0.000000 0.000000 0.000000 0.000000 0.000000 0.000000 0.000000 0.000000 0.000000 1.191597 -9.028739 13.241761 17.614961 -48.981691 20.627801 6.913523 1.641808 35.432309 -14.356470 0.018926 1.884727 0.000000 0.000000 0.000000 0.000000 0.000000 0.000000 0.000000 0.000000 0.000000 0.000000 0.000000 0.000000 0.000000 0.000000 0.000000 0.000000 0.000000 0.000000 0.000000 0.000000 0.000000 0.000000 0.000000 0.000000 0.000000 0.000000 0.000000 0.000000 0.000000 0.000000 0.000000 0.000000 0.000000 0.000000 0.000000 0.000000 0.000000 0.000000 0.000000 0.000000 0.000000 0.000000
